PathFileType	4	(X/Y/Z)	C:/Users/opensim2020/Desktop/walking_exp_matlab/subject02_walking06_static.trc	
DataRate	CameraRate	NumFrames	NumMarkers	Units	OrigDataRate	OrigDataStartFrame	OrigNumFrames	
100.00	100.00	7	41	mm	100.00	1	287	
Frame#	Time	LFHD			RFHD			LBHD			RBHD			C7			T10			CLAV			STRN			RBAK			LSHO			LUPA			LELB			LFRM			LWRA			LWRB			LFIN			RSHO			RUPA			RELB			RFRM			RWRA			RWRB			RFIN			LASI			RASI			LPSI			RPSI			LTHI			LKNE			LTIB			LANK			LHEE			LTOE			RTHI			RKNE			RTIB			RANK			RHEE			RTOE			*39			*40			
		X1	Y1	Z1	X2	Y2	Z2	X3	Y3	Z3	X4	Y4	Z4	X5	Y5	Z5	X6	Y6	Z6	X7	Y7	Z7	X8	Y8	Z8	X9	Y9	Z9	X10	Y10	Z10	X11	Y11	Z11	X12	Y12	Z12	X13	Y13	Z13	X14	Y14	Z14	X15	Y15	Z15	X16	Y16	Z16	X17	Y17	Z17	X18	Y18	Z18	X19	Y19	Z19	X20	Y20	Z20	X21	Y21	Z21	X22	Y22	Z22	X23	Y23	Z23	X24	Y24	Z24	X25	Y25	Z25	X26	Y26	Z26	X27	Y27	Z27	X28	Y28	Z28	X29	Y29	Z29	X30	Y30	Z30	X31	Y31	Z31	X32	Y32	Z32	X33	Y33	Z33	X34	Y34	Z34	X35	Y35	Z35	X36	Y36	Z36	X37	Y37	Z37	X38	Y38	Z38	X39	Y39	Z39	X40	Y40	Z40	X41	Y41	Z41	

1	0.000	-17.20875	-694.75226	1752.39709	-2.93057	-553.14636	1733.06860	103.33887	-718.28394	1664.19299	130.08344	-578.64075	1642.34949	151.13104	-642.79901	1523.81482	192.64717	-637.31885	1248.43726	-0.47064	-654.15765	1474.25549	-62.50739	-642.09308	1305.22034	189.14122	-566.69031	1353.09082	59.04382	-821.50488	1513.44946	58.80298	-929.36646	1328.61206	64.19378	-962.66998	1190.70459	45.39023	-982.63385	1058.05115	-8.23109	-946.43597	933.76740	29.47269	-989.16351	936.57721	4.64123	-993.59833	875.57709	48.93540	-462.43774	1515.23462	49.95297	-347.58014	1344.21326	28.05865	-313.21677	1198.76965	-13.15470	-301.41003	1082.54565	-59.53489	-332.60532	958.54059	-27.58636	-286.11810	953.40192	-69.84681	-295.24402	895.42468	-38.69963	-758.46631	992.85358	-29.96426	-507.69153	985.57745	173.71004	-688.68079	1028.52991	181.66121	-573.82318	1030.52551	37.82998	-840.00995	686.03650	72.34901	-827.57245	485.01062	126.98531	-851.53644	299.67331	116.41319	-847.56360	72.54382	151.70120	-801.32404	40.77158	-42.77139	-860.38855	30.96829	58.76634	-414.83124	683.05072	59.50902	-431.40640	471.63342	111.24769	-403.86136	292.12741	133.79279	-415.10248	96.98755	166.72037	-465.16150	37.68769	-15.41270	-379.75394	37.89698	100.89202	-618.05615	1806.51953			 
2	0.010	-17.46968	-694.66895	1752.36890	-3.16622	-553.06628	1733.02124	103.20381	-718.21930	1664.34790	129.99142	-578.58783	1642.51086	151.05196	-642.66064	1523.82715	192.44977	-637.29034	1248.43799	-0.53691	-654.15179	1474.37964	-62.66032	-642.05927	1305.37854	188.90843	-567.59546	1352.63293	59.22197	-821.55737	1513.57617	59.30213	-929.26831	1328.53052	64.99866	-962.16785	1190.60327	45.94525	-982.81262	1058.18640	-7.91739	-946.41351	933.75702	29.92917	-988.50415	936.31860	5.29499	-993.29840	875.48151	48.86434	-462.33508	1515.19080	49.68104	-347.89212	1344.03528	28.17977	-313.24533	1198.65784	-12.97454	-301.46262	1082.42236	-59.41820	-332.65820	958.45532	-27.40662	-286.26163	953.25134	-69.74985	-295.39706	895.18921	-38.76364	-758.48798	992.86945	-30.02320	-507.68237	985.57104	173.57614	-688.73663	1028.62280	181.55460	-573.84241	1030.59692	37.84863	-840.01251	686.06805	72.45696	-827.54742	485.03009	127.01192	-851.54572	299.68170	116.43322	-847.55194	72.55269	151.70226	-801.30066	40.80157	-42.79006	-860.38507	30.99025	58.73985	-414.83389	683.06683	59.56569	-431.45413	471.61053	111.27044	-403.87164	292.13330	133.76224	-415.11136	96.96671	166.72833	-465.12793	37.62641	-15.41099	-379.74680	37.90508	100.70259	-617.75708	1806.77356			 
3	0.020	-17.71779	-694.56213	1752.32214	-3.44084	-552.95929	1732.96240	103.09733	-718.14154	1664.50708	129.87843	-578.50458	1642.70813	150.98734	-642.52399	1523.83777	192.34593	-637.29340	1248.46191	-0.58694	-654.13800	1474.45679	-62.79934	-642.04822	1305.51367	188.77763	-567.54102	1352.60266	59.37358	-821.46338	1513.43140	59.84046	-929.06299	1328.44958	65.62652	-961.91766	1190.50061	46.70678	-982.03375	1057.91040	-7.71440	-946.23529	933.72028	30.48406	-988.06976	936.26196	5.75979	-992.97833	875.35254	48.78285	-462.24091	1515.13879	49.70521	-347.86414	1343.98645	28.28235	-313.28702	1198.57544	-12.75796	-301.50790	1082.26343	-59.30711	-332.71017	958.35339	-27.14602	-286.40219	953.11749	-69.52915	-295.49207	895.05621	-38.88041	-758.53149	992.87512	-30.06278	-507.70541	985.57941	173.42447	-688.82916	1028.73462	181.43242	-573.88348	1030.69910	37.86789	-839.99670	686.07275	72.56310	-827.55157	485.05356	127.04444	-851.54407	299.69983	116.42143	-847.54584	72.55389	151.72874	-801.30109	40.81666	-42.82205	-860.41748	30.98811	58.58941	-415.56848	682.59668	59.61033	-431.48029	471.66098	111.33593	-403.88773	292.14032	133.77956	-415.11417	96.99618	166.70024	-465.13535	37.64211	-15.42656	-379.74646	37.90742	100.35027	-617.62848	1806.89954	-3356.93970	2845.95264	1034.02124 
4	0.030	-17.94475	-694.51257	1752.26563	-3.68375	-552.87531	1732.90942	102.98888	-718.05756	1664.63220	130.41325	-578.34467	1642.71936	150.95029	-642.39996	1523.84924	192.19493	-637.25281	1248.44409	-0.66895	-654.10406	1474.55359	-62.93647	-642.03271	1305.61572	188.87572	-566.33118	1352.57642	59.49287	-821.40320	1513.43994	60.29684	-928.85168	1328.38867	66.29285	-961.38171	1190.38672	47.29934	-981.50592	1057.73962	-7.50749	-945.98193	933.73096	31.19767	-987.90613	936.37836	6.12882	-992.60535	875.29974	48.64789	-462.10822	1515.08813	49.45043	-347.68423	1343.66528	28.42125	-313.31833	1198.46765	-12.56738	-301.59830	1082.13452	-59.16838	-332.81799	958.25098	-26.88310	-286.58426	952.95441	-69.25808	-295.67599	894.89941	-38.99758	-758.53320	992.87384	-30.13445	-507.72421	985.56213	173.27621	-688.88037	1028.78906	181.34062	-573.95911	1030.76660	37.83712	-839.99945	686.05090	72.64568	-827.56879	485.07166	127.14488	-851.53906	299.68286	116.31364	-847.46350	72.51520	151.70389	-801.29218	40.80064	-42.80270	-860.41016	30.97197	58.72853	-414.89932	683.04266	59.63812	-431.50415	471.62613	111.35046	-403.94437	292.16055	133.78792	-415.11121	96.98634	166.72586	-465.14255	37.64611	-15.41634	-379.75638	37.89562	100.02155	-617.50452	1807.00110	-3356.82764	2845.86523	1033.87830 
5	0.040	-18.16453	-694.41687	1752.20300	-3.91118	-552.78906	1732.82068	102.91838	-717.92804	1664.77454	129.67871	-578.28864	1642.99390	150.89993	-642.24316	1523.89514	192.07176	-637.27765	1248.41138	-0.71122	-654.05988	1474.66650	-63.06078	-641.97589	1305.75061	188.50745	-567.24023	1352.51111	59.61280	-821.32361	1513.46729	60.84734	-928.43292	1328.34570	66.92512	-961.46570	1190.39722	47.77586	-981.01221	1057.63477	-7.44467	-945.59363	933.69250	31.48026	-987.25122	936.14020	6.55518	-992.01581	875.32825	48.53297	-462.01083	1515.05054	49.49576	-347.43985	1343.72095	28.52531	-313.34543	1198.42542	-12.38691	-301.73090	1082.03894	-59.31443	-332.79684	958.35535	-26.59654	-286.87698	952.82330	-69.15873	-295.75742	894.91998	-39.10020	-758.50970	992.89905	-30.18830	-507.71619	985.56769	173.14153	-688.96112	1028.86475	181.26024	-574.02167	1030.84253	37.80540	-840.00836	686.05365	72.75081	-827.55377	485.07910	127.25727	-851.53180	299.71585	116.45972	-847.53442	72.57225	151.69809	-801.28864	40.81216	-42.80236	-860.39868	30.97882	58.76442	-414.98059	683.02545	59.67847	-431.56528	471.62479	111.36093	-403.96719	292.11987	133.79803	-415.14642	96.95387	166.75175	-465.15402	37.69110	-15.42044	-379.75467	37.90494	99.70347	-617.40137	1807.09412	-3360.36890	2845.32178	1033.81812 
6	0.050	-18.34889	-694.35028	1752.14026	-4.08364	-552.70172	1732.75708	102.85909	-717.82874	1664.88318	129.57874	-578.18463	1643.15222	150.84914	-642.01697	1523.88745	191.93668	-637.25653	1248.41943	-0.72753	-654.01929	1474.72937	-63.19703	-641.95404	1305.89709	188.54825	-567.25500	1352.40601	59.73359	-821.22675	1513.53516	61.07777	-928.04321	1328.08557	67.33511	-961.03461	1190.33521	48.05163	-981.18054	1057.74915	-7.28849	-944.97266	933.71198	31.66724	-986.12476	935.85443	6.69159	-991.25439	875.19708	48.40238	-461.90417	1515.01904	49.52174	-347.35248	1343.89453	28.54741	-313.34216	1198.41357	-12.28618	-301.82285	1081.96204	-59.08361	-333.06021	958.25000	-26.36292	-287.16095	952.71490	-68.87246	-296.03949	894.78186	-39.21235	-758.48029	992.91022	-30.23571	-507.70401	985.56860	172.99356	-689.03400	1028.90857	181.19548	-574.10205	1030.88684	37.73084	-840.07562	686.05292	72.82395	-827.55865	485.09564	127.34113	-851.52509	299.69818	116.45623	-847.53589	72.56858	151.69423	-801.28827	40.76892	-42.78931	-860.39252	30.97435	58.39396	-415.65906	682.87732	59.67450	-431.54004	471.65295	111.34301	-403.93158	292.14935	133.75392	-415.14001	96.97173	166.45840	-465.24615	37.48386	-15.43932	-379.75226	37.90861	99.35529	-617.29706	1807.20801	-3360.27979	2845.20190	1033.96631 
7	0.060	-18.49390	-694.26691	1752.06396	-4.28591	-552.61499	1732.75183	102.84226	-717.67267	1664.97217	129.55190	-578.00543	1643.32251	150.83983	-641.85901	1523.91064	191.79619	-637.22266	1248.39575	-0.73504	-653.97986	1474.80896	-63.32082	-641.96356	1306.03540	188.36996	-566.89410	1352.52698	59.86708	-821.28461	1513.84351	61.30725	-927.93005	1328.24646	67.61044	-960.62170	1190.32727	48.31839	-980.50433	1057.64270	-7.14425	-944.32123	933.84009	32.03006	-985.61206	935.98334	6.92133	-990.30908	875.12805	48.26968	-461.79398	1515.04431	49.40593	-347.32458	1343.93005	28.49215	-313.30789	1198.46216	-12.22355	-302.00262	1081.91199	-58.85296	-333.41580	958.17914	-26.17592	-287.48041	952.62122	-68.46001	-296.48422	894.58380	-39.34172	-758.45502	992.93671	-30.28142	-507.73029	985.56842	172.85410	-689.11743	1028.94446	181.12262	-574.19348	1030.92651	37.64005	-840.11115	686.04523	72.89098	-827.58417	485.08893	127.36173	-851.51355	299.67975	116.42486	-847.48865	72.52032	151.70869	-801.32440	40.77265	-42.78191	-860.41748	30.98876	58.54082	-415.78439	682.72943	59.74995	-431.62360	471.60574	111.31277	-403.97614	292.13425	133.72339	-415.13171	96.96863	166.44014	-465.22104	37.52208	-15.43416	-379.74704	37.87502	99.07581	-617.18414	1807.31128	-3360.17798	2845.02979	1033.99707 
